<?xml version="1.0" standalone="no"?>
<!DOCTYPE svg PUBLIC "-//W3C//DTD SVG 20010904//EN"
 "http://www.w3.org/TR/2001/REC-SVG-20010904/DTD/svg10.dtd">
<svg version="1.0" xmlns="http://www.w3.org/2000/svg"
 width="150.000000pt" height="150.000000pt" viewBox="0 0 150.000000 150.000000"
 preserveAspectRatio="xMidYMid meet">

<g transform="translate(0.000000,150.000000) scale(0.100000,-0.100000)"
fill="#000000" stroke="none">
<path d="M695 1170 c-3 -6 1 -7 9 -4 18 7 21 14 7 14 -6 0 -13 -4 -16 -10z"/>
<path d="M766 1173 c6 -4 14 -15 17 -23 5 -11 6 -9 4 4 -1 11 -9 21 -17 23
-10 3 -11 2 -4 -4z"/>
<path d="M825 1160 c-3 -6 1 -7 9 -4 11 4 16 0 16 -11 0 -12 -5 -15 -17 -10
-15 5 -16 4 -5 -6 16 -17 37 3 29 25 -7 18 -23 21 -32 6z"/>
<path d="M590 1139 c0 -5 -4 -7 -10 -4 -6 3 -7 -1 -4 -9 9 -23 24 -20 24 4 0
11 -2 20 -5 20 -3 0 -5 -5 -5 -11z"/>
<path d="M889 1129 c-8 -15 -8 -19 0 -15 6 4 11 2 11 -5 0 -9 3 -9 14 0 11 9
15 9 19 -1 3 -8 6 -6 6 5 1 14 -4 17 -19 12 -15 -5 -18 -3 -14 9 9 23 -4 19
-17 -5z"/>
<path d="M610 1130 c0 -5 5 -10 10 -10 6 0 10 5 10 10 0 6 -4 10 -10 10 -5 0
-10 -4 -10 -10z"/>
<path d="M493 1078 c-1 -11 1 -16 5 -12 4 5 11 12 15 15 5 3 2 9 -5 12 -9 3
-14 -3 -15 -15z"/>
<path d="M639 1066 c-136 -49 -219 -168 -219 -316 0 -98 29 -171 94 -236 166
-166 464 -106 544 109 36 96 26 257 -16 257 -14 0 -14 2 -3 9 11 7 10 15 -8
45 -32 52 -96 103 -158 126 -63 23 -178 26 -234 6z m-41 -260 c-31 -63 -32
-68 -18 -94 9 -14 31 -37 49 -49 19 -13 29 -23 23 -23 -7 0 -30 16 -52 36 -41
37 -44 37 -53 -16 -3 -14 -5 -4 -4 22 1 45 -14 78 -35 78 -6 0 -8 -7 -4 -15 3
-8 1 -15 -4 -15 -13 0 -13 27 0 35 5 3 19 0 31 -9 20 -14 23 -12 56 55 19 39
37 68 40 66 2 -3 -11 -35 -29 -71z m240 62 c15 -15 16 -63 1 -90 -16 -30 -5
-32 30 -3 37 31 38 28 10 -26 -29 -57 -17 -60 15 -4 32 54 81 112 108 126 10
5 -2 -10 -26 -34 -24 -25 -61 -74 -82 -111 -51 -89 -65 -86 -38 7 9 30 -12 18
-50 -28 -21 -25 -42 -45 -48 -45 -7 0 -2 10 10 23 33 36 75 134 68 162 -9 36
-51 34 -70 -2 -8 -16 -15 -22 -16 -14 -1 39 61 66 88 39z"/>
<path d="M440 1066 c0 -2 8 -10 18 -17 15 -13 16 -12 3 4 -13 16 -21 21 -21
13z"/>
<path d="M413 1025 c-10 -10 -9 -16 4 -27 10 -8 14 -8 10 -1 -4 7 0 13 9 15
15 2 15 5 3 14 -11 9 -17 9 -26 -1z"/>
<path d="M372 964 c10 -10 20 -15 24 -12 3 4 -5 12 -18 18 -22 12 -22 12 -6
-6z"/>
<path d="M345 920 c-17 -8 -17 -9 7 -7 15 1 24 5 22 9 -3 4 -6 8 -7 7 -1 0
-11 -4 -22 -9z"/>
<path d="M320 856 c0 -9 5 -16 10 -16 6 0 10 4 10 9 0 6 -4 13 -10 16 -5 3
-10 -1 -10 -9z"/>
</g>
</svg>
